<?xml version="1.0" encoding="UTF-8"?>
<svg width="752pt" height="752pt" version="1.1" viewBox="0 0 752 752" xmlns="http://www.w3.org/2000/svg">
 <g>
  <path d="m435.26 500.92h-193.68v-38.406h193.68v38.406zm-178.93-14.758h164.17v-8.8945l-164.17 0.003907z"/>
  <path d="m536.85 285.17-26.887 6.8438v-36.578h-343.08v195.52h303.67l12.145 47.727 101.89-25.934zm-355.21 151.03v-166.01h313.57v25.578l-20.465 5.2109v-13.316h-272.64v131.07h260.24l4.4414 17.465zm196.08-83c0 21.703-17.594 39.289-39.289 39.289-21.699 0-39.289-17.586-39.289-39.289 0-21.699 17.59-39.289 39.289-39.289 21.695-0.003906 39.289 17.59 39.289 39.289zm148.47-50.086 40.457 158.98-73.293 18.648-40.457-158.98z"/>
  <path d="m328.7 374.49 30.676-21.293-30.676-21.297z"/>
  <path d="m521.9 319.87 3.7148 14.598-14.598 3.7148-3.7148-14.598z"/>
  <path d="m500.57 325.29 3.7227 14.602-14.602 3.7227-3.7227-14.602z"/>
  <path d="m479.29 330.75 3.7148 14.605-14.602 3.7148-3.7148-14.605z"/>
  <path d="m527.34 341.32 3.7148 14.598-14.598 3.7148-3.7148-14.598z"/>
  <path d="m506.04 346.77 3.7188 14.598-14.598 3.7188-3.7188-14.598z"/>
  <path d="m484.75 352.18 3.7148 14.594-14.594 3.7148-3.7148-14.594z"/>
  <path d="m532.68 362.32 3.7148 14.598-14.598 3.7148-3.7148-14.598z"/>
  <path d="m511.4 367.75 3.7148 14.598-14.598 3.7148-3.7148-14.598z"/>
  <path d="m490.08 373.18 3.707 14.602-14.598 3.707-3.707-14.602z"/>
  <path d="m538.04 383.32 3.707 14.605-14.602 3.707-3.707-14.605z"/>
  <path d="m516.76 388.76 3.7188 14.594-14.602 3.7188-3.7188-14.594z"/>
  <path d="m495.45 394.18 3.7148 14.594-14.598 3.7148-3.7148-14.594z"/>
 </g>
</svg>
